<mxfile host="65bd71144e">
    <diagram id="adBpD7APLrumc_C-mHmm" name="Page-1">
        <mxGraphModel dx="894" dy="1124" grid="1" gridSize="10" guides="1" tooltips="1" connect="1" arrows="1" fold="1" page="1" pageScale="1" pageWidth="850" pageHeight="1100" math="0" shadow="0">
            <root>
                <mxCell id="0"/>
                <mxCell id="1" parent="0"/>
                <mxCell id="6" style="edgeStyle=none;html=1;exitX=0.5;exitY=0;exitDx=0;exitDy=0;entryX=0.55;entryY=0.95;entryDx=0;entryDy=0;entryPerimeter=0;" parent="1" source="2" target="3" edge="1">
                    <mxGeometry relative="1" as="geometry">
                        <Array as="points">
                            <mxPoint x="460" y="440"/>
                            <mxPoint x="346" y="440"/>
                        </Array>
                    </mxGeometry>
                </mxCell>
                <mxCell id="7" style="edgeStyle=none;html=1;exitX=0.5;exitY=0;exitDx=0;exitDy=0;entryX=0.55;entryY=0.95;entryDx=0;entryDy=0;entryPerimeter=0;startArrow=classic;startFill=1;" parent="1" source="2" target="4" edge="1">
                    <mxGeometry relative="1" as="geometry">
                        <Array as="points">
                            <mxPoint x="460" y="440"/>
                            <mxPoint x="586" y="440"/>
                        </Array>
                    </mxGeometry>
                </mxCell>
                <mxCell id="2" value="AceStream Server" style="shape=process;whiteSpace=wrap;html=1;backgroundOutline=1;" parent="1" vertex="1">
                    <mxGeometry x="400" y="470" width="120" height="60" as="geometry"/>
                </mxCell>
                <mxCell id="3" value="Stream &lt;font style=&quot;&quot; face=&quot;Courier New&quot;&gt;#1&lt;/font&gt;" style="ellipse;shape=cloud;whiteSpace=wrap;html=1;" parent="1" vertex="1">
                    <mxGeometry x="280" y="320" width="120" height="80" as="geometry"/>
                </mxCell>
                <mxCell id="4" value="Stream &lt;font face=&quot;Courier New&quot;&gt;#n&lt;/font&gt;" style="ellipse;shape=cloud;whiteSpace=wrap;html=1;" parent="1" vertex="1">
                    <mxGeometry x="520" y="320" width="120" height="80" as="geometry"/>
                </mxCell>
                <mxCell id="8" value="" style="endArrow=none;dashed=1;html=1;dashPattern=1 3;strokeWidth=2;" parent="1" edge="1">
                    <mxGeometry width="50" height="50" relative="1" as="geometry">
                        <mxPoint x="410" y="359.5" as="sourcePoint"/>
                        <mxPoint x="510" y="359.5" as="targetPoint"/>
                    </mxGeometry>
                </mxCell>
                <mxCell id="9" value="1..n" style="text;html=1;align=center;verticalAlign=middle;resizable=0;points=[];autosize=1;strokeColor=none;fillColor=none;fontFamily=Courier New;" parent="1" vertex="1">
                    <mxGeometry x="435" y="330" width="50" height="30" as="geometry"/>
                </mxCell>
                <mxCell id="23" style="edgeStyle=none;html=1;exitX=0.5;exitY=0;exitDx=0;exitDy=0;entryX=0.5;entryY=1;entryDx=0;entryDy=0;fontFamily=Courier New;startArrow=classic;startFill=1;" parent="1" source="12" target="2" edge="1">
                    <mxGeometry relative="1" as="geometry">
                        <Array as="points">
                            <mxPoint x="270" y="570"/>
                            <mxPoint x="460" y="570"/>
                        </Array>
                    </mxGeometry>
                </mxCell>
                <mxCell id="12" value="&lt;font face=&quot;Helvetica&quot;&gt;Playing Stream &lt;/font&gt;#1" style="swimlane;whiteSpace=wrap;html=1;fontFamily=Courier New;" parent="1" vertex="1">
                    <mxGeometry x="140" y="610" width="260" height="130" as="geometry"/>
                </mxCell>
                <mxCell id="10" value="&lt;font face=&quot;Helvetica&quot;&gt;Client&lt;span style=&quot;font-size: 10px;&quot;&gt;&lt;sub&gt;1&lt;/sub&gt;&lt;/span&gt;&lt;/font&gt;" style="rounded=1;whiteSpace=wrap;html=1;fontFamily=Courier New;" parent="12" vertex="1">
                    <mxGeometry x="10" y="50" width="80" height="60" as="geometry"/>
                </mxCell>
                <mxCell id="13" value="&lt;font face=&quot;Helvetica&quot;&gt;Client&lt;span style=&quot;font-size: 10px;&quot;&gt;&lt;sub&gt;k&lt;/sub&gt;&lt;/span&gt;&lt;/font&gt;" style="rounded=1;whiteSpace=wrap;html=1;fontFamily=Courier New;" parent="12" vertex="1">
                    <mxGeometry x="170" y="50" width="80" height="60" as="geometry"/>
                </mxCell>
                <mxCell id="14" value="" style="endArrow=none;dashed=1;html=1;dashPattern=1 3;strokeWidth=2;" parent="12" edge="1">
                    <mxGeometry width="50" height="50" relative="1" as="geometry">
                        <mxPoint x="105" y="79.5" as="sourcePoint"/>
                        <mxPoint x="155" y="79.5" as="targetPoint"/>
                    </mxGeometry>
                </mxCell>
                <mxCell id="15" value="1..k" style="text;html=1;align=center;verticalAlign=middle;resizable=0;points=[];autosize=1;strokeColor=none;fillColor=none;fontFamily=Courier New;" parent="12" vertex="1">
                    <mxGeometry x="105" y="50" width="50" height="30" as="geometry"/>
                </mxCell>
                <mxCell id="25" value="" style="verticalLabelPosition=bottom;verticalAlign=top;html=1;shape=mxgraph.basic.no_symbol;fillColor=#e51400;fontColor=#ffffff;strokeColor=#B20000;" vertex="1" parent="12">
                    <mxGeometry x="95" y="45" width="70" height="70" as="geometry"/>
                </mxCell>
                <mxCell id="24" style="edgeStyle=none;html=1;exitX=0.5;exitY=0;exitDx=0;exitDy=0;fontFamily=Courier New;startArrow=classic;startFill=1;" parent="1" source="16" edge="1">
                    <mxGeometry relative="1" as="geometry">
                        <mxPoint x="460" y="530" as="targetPoint"/>
                        <Array as="points">
                            <mxPoint x="650" y="570"/>
                            <mxPoint x="460" y="570"/>
                        </Array>
                    </mxGeometry>
                </mxCell>
                <mxCell id="16" value="&lt;font face=&quot;Helvetica&quot;&gt;Playing Stream &lt;/font&gt;#n" style="swimlane;whiteSpace=wrap;html=1;fontFamily=Courier New;" parent="1" vertex="1">
                    <mxGeometry x="520" y="610" width="260" height="130" as="geometry"/>
                </mxCell>
                <mxCell id="17" value="&lt;font face=&quot;Helvetica&quot;&gt;Client&lt;span style=&quot;font-size: 10px;&quot;&gt;&lt;sub&gt;1&lt;/sub&gt;&lt;/span&gt;&lt;/font&gt;" style="rounded=1;whiteSpace=wrap;html=1;fontFamily=Courier New;" parent="16" vertex="1">
                    <mxGeometry x="10" y="50" width="80" height="60" as="geometry"/>
                </mxCell>
                <mxCell id="18" value="&lt;font face=&quot;Helvetica&quot;&gt;Client&lt;sub&gt;i&lt;/sub&gt;&lt;/font&gt;" style="rounded=1;whiteSpace=wrap;html=1;fontFamily=Courier New;" parent="16" vertex="1">
                    <mxGeometry x="170" y="50" width="80" height="60" as="geometry"/>
                </mxCell>
                <mxCell id="19" value="" style="endArrow=none;dashed=1;html=1;dashPattern=1 3;strokeWidth=2;" parent="16" edge="1">
                    <mxGeometry width="50" height="50" relative="1" as="geometry">
                        <mxPoint x="105" y="79.5" as="sourcePoint"/>
                        <mxPoint x="155" y="79.5" as="targetPoint"/>
                    </mxGeometry>
                </mxCell>
                <mxCell id="20" value="1..i" style="text;html=1;align=center;verticalAlign=middle;resizable=0;points=[];autosize=1;strokeColor=none;fillColor=none;fontFamily=Courier New;" parent="16" vertex="1">
                    <mxGeometry x="105" y="50" width="50" height="30" as="geometry"/>
                </mxCell>
                <mxCell id="26" value="" style="verticalLabelPosition=bottom;verticalAlign=top;html=1;shape=mxgraph.basic.no_symbol;fillColor=#e51400;fontColor=#ffffff;strokeColor=#B20000;" vertex="1" parent="16">
                    <mxGeometry x="95" y="45" width="70" height="70" as="geometry"/>
                </mxCell>
                <mxCell id="21" value="" style="endArrow=none;dashed=1;html=1;dashPattern=1 3;strokeWidth=2;" parent="1" edge="1">
                    <mxGeometry width="50" height="50" relative="1" as="geometry">
                        <mxPoint x="410" y="690" as="sourcePoint"/>
                        <mxPoint x="510" y="690" as="targetPoint"/>
                    </mxGeometry>
                </mxCell>
                <mxCell id="22" value="1..j" style="text;html=1;align=center;verticalAlign=middle;resizable=0;points=[];autosize=1;strokeColor=none;fillColor=none;fontFamily=Courier New;" parent="1" vertex="1">
                    <mxGeometry x="435" y="660" width="50" height="30" as="geometry"/>
                </mxCell>
                <mxCell id="27" value="Warning" style="html=1;shadow=0;dashed=0;shape=mxgraph.bootstrap.rrect;rSize=5;strokeColor=none;strokeWidth=1;fillColor=#FFBC26;fontColor=#000000;whiteSpace=wrap;align=left;verticalAlign=middle;spacingLeft=0;fontStyle=1;fontSize=14;spacing=5;" vertex="1" parent="1">
                    <mxGeometry x="427.5" y="700" width="65" height="20" as="geometry"/>
                </mxCell>
            </root>
        </mxGraphModel>
    </diagram>
</mxfile>